<svg id="Layer_1" data-name="Layer 1" xmlns="http://www.w3.org/2000/svg" viewBox="0 0 210 210"><defs><style>.cls-1{fill:none;stroke:#000;stroke-miterlimit:10;stroke-width:10px;}</style></defs><title>Artboard 1</title><circle class="cls-1" cx="105" cy="105" r="100"/><path d="M142.08,67.75a16.68,16.68,0,0,0-1-2.44c-.8-1.16-1.53-2.29-2.24-3.37l-.51-.78c-6.18-9.57-11.51-17.82-33.25-17.82-22.77,0-28.17,9-34.43,19.31-.72,1.2-1.47,2.44-2.28,3.72a5.46,5.46,0,0,0-.28,5.48l.79,1.47-.18-1c0,.22.08.44.12.67a2.38,2.38,0,0,0,.06.36l18.31,41.94a4.88,4.88,0,0,0,1.59,1.92l1.37,1-.46,1.65c-4.16,14.8-5.56,45.76-5.24,81.12a99.32,99.32,0,0,0,10,2.37c-.08-6.93-.09-13.67,0-20.13l0-2.48h21.35l0,2.48c.05,7,0,14.28-.06,21.73q5-.15,9.94-.8c.45-41-1.43-71.72-5.4-85l-.6-2,1.85-.95a4.88,4.88,0,0,0,2.3-2.36l18.32-42a4.93,4.93,0,0,0,.17-3.5ZM94.54,170.86l.07-2.56c.56-21.72,1.93-36.74,4.07-44.64l.5-1.84h11.76l.5,1.84c2.15,7.88,3.52,22.9,4.08,44.65l.07,2.56Zm20.31-61.16a3.21,3.21,0,0,1-.19.67l-.63,1.56H96.5L78,69.55l1.08-1.78c6.25-10.36,9.45-14.56,26-14.56C120.8,53.21,123.9,57,130,66.48l1.48,2.27.74,1.13Z"/></svg>