<svg id="Layer_1" data-name="Layer 1" xmlns="http://www.w3.org/2000/svg" viewBox="0 0 210 210"><defs><style>.cls-1{fill:none;stroke:#000;stroke-miterlimit:10;stroke-width:10px;}</style></defs><title>Artboard 1</title><path d="M114.09,62.49,157,19.57q-3.44-2.1-7.06-3.92L78,87.56A19.41,19.41,0,0,0,78,115l23.28,23.28A19.28,19.28,0,0,0,115,144h18.18a19.28,19.28,0,0,0,13.72-5.68l18.73-18.73h0l36.83-36.83q-1-4.38-2.37-8.6l-37.2,37.2Zm27.37,70.33a11.59,11.59,0,0,1-8.23,3.41H115a11.58,11.58,0,0,1-8.23-3.41L83.53,109.53a11.66,11.66,0,0,1,0-16.47L108.61,68l48.84,48.84Z"/><path d="M89.21,140.09a3.88,3.88,0,0,0-3.88-3.88H46.52a3.88,3.88,0,1,0,0,7.76H85.33A3.88,3.88,0,0,0,89.21,140.09Z"/><path d="M155.18,151.73H85.33a3.88,3.88,0,1,0,0,7.76h69.85a3.88,3.88,0,0,0,0-7.76Z"/><circle class="cls-1" cx="105" cy="105" r="100"/></svg>