<?xml version="1.0" encoding="iso-8859-1"?>
<!-- Generator: Adobe Illustrator 16.0.0, SVG Export Plug-In . SVG Version: 6.00 Build 0)  -->
<!DOCTYPE svg PUBLIC "-//W3C//DTD SVG 1.1//EN" "http://www.w3.org/Graphics/SVG/1.1/DTD/svg11.dtd">
<svg version="1.1" id="Capa_1" xmlns="http://www.w3.org/2000/svg" xmlns:xlink="http://www.w3.org/1999/xlink" x="0px" y="0px"
	 width="97.463px" height="97.463px" viewBox="0 0 97.463 97.463" style="enable-background:new 0 0 97.463 97.463;"
	 xml:space="preserve">
<g>
	<g>
		<path d="M59.638,75.934V34.451h6.383v-0.508l0.096,0.08l24.365-19.946l-5.947-4.935L69.846,21.173l1.653-5.534L17.029,0
			l-5.291,9.433l46.33,13.846H6.981l6.232,11.171h4.454L29.729,96.06l20.892-0.37c-1.822-2.098-2.953-4.797-2.953-7.788
			C47.671,81.296,53.03,75.934,59.638,75.934z"/>
		<path d="M60.696,78.347c-5.271,0-9.557,4.291-9.557,9.558s4.286,9.559,9.557,9.559c5.264,0,9.555-4.292,9.555-9.559
			S65.959,78.347,60.696,78.347z M60.696,93.432c-3.049,0-5.53-2.481-5.53-5.53c0-3.05,2.481-5.527,5.53-5.527
			c3.046,0,5.526,2.478,5.526,5.527C66.222,90.951,63.745,93.432,60.696,93.432z"/>
	</g>
</g>
<g>
</g>
<g>
</g>
<g>
</g>
<g>
</g>
<g>
</g>
<g>
</g>
<g>
</g>
<g>
</g>
<g>
</g>
<g>
</g>
<g>
</g>
<g>
</g>
<g>
</g>
<g>
</g>
<g>
</g>
</svg>
