<svg id="Layer_1" data-name="Layer 1" xmlns="http://www.w3.org/2000/svg" viewBox="0 0 210 210"><defs><style>.cls-1{fill:none;stroke:#000;stroke-miterlimit:10;stroke-width:10px;}</style></defs><title>Artboard 1</title><circle class="cls-1" cx="105" cy="105" r="100"/><path d="M164.25,73.09a14.2,14.2,0,0,0-1.58-2.8C150,51.81,131.12,42.83,105,42.83c-27.16,0-46.3,9.41-58.52,28.77-1.11,1.76-1.61,4.2-.47,6l.47.95c1.15,1.9.73,1.28,1.15,1.9l38.67,57-.13.28c-5.42,11.15-8.54,33-9,63.29a100.6,100.6,0,0,0,55.22.14c-.48-30.3-3.58-52.14-9-63.35l40-59.13c1.07-1.58,1.71-3,1-5Zm-76.1,124.8.05-2c.68-27,3.54-46.73,7.86-54.08l.58-1H112.9l.58,1c2,3.49,6.9,15.75,7.86,54.08l.05,2ZM115.57,130h-.07l-.33,0-.21,0H94.26l-37-54.65.84-1.14C68.37,60.19,83.28,53.71,105,53.71S141.09,60,151.84,74l.87,1.14Z"/></svg>