<svg id="Layer_1" data-name="Layer 1" xmlns="http://www.w3.org/2000/svg" viewBox="0 0 210 210"><defs><style>.cls-1{fill:none;stroke:#000;stroke-miterlimit:10;stroke-width:10px;}</style></defs><title>Artboard 1</title><circle class="cls-1" cx="105" cy="105" r="100"/><path d="M126.87,81.17a238.26,238.26,0,0,0-16.45-33c-1-1.61-3.22-2.57-5.71-2.44h-.35c-2.46-.12-4.76.86-5.72,2.42a237.19,237.19,0,0,0-16.46,33c-7.51,18.77,4.59,49.39,5.11,50.69l.54,1.34-.56,1.33c-4.49,10.61-6.94,34.11-7.11,65.86a99.3,99.3,0,0,0,11.5,2.88c-.18-9.7-.23-18.75-.13-26.75l0-3.46h27.26l0,3.46c.11,8.37.05,17.9-.15,28.13A100,100,0,0,0,130.27,203c0-34.71-2.74-59.82-7.78-69.9l-.68-1.36.53-1.43C124.3,125.09,133.69,98.2,126.87,81.17Zm-33.78,2h0c2.31-5.78,5.11-11.9,8.32-18.2l3.12-6.12L107.65,65c3.2,6.27,6,12.39,8.32,18.2,5.1,12.74-.55,33.18-3.22,41.38L112,127H97.08l-.79-2.42C93.63,116.36,88,95.93,93.09,83.17Zm-1.31,82,.15-3.64c.51-12.53,1.48-14.92,3.29-18.39a26.39,26.39,0,0,0,1.76-4l.82-2.35h14.83l.82,2.35a26.4,26.4,0,0,0,1.75,4c1.81,3.47,2.78,5.86,3.29,18.39l.15,3.64Z"/></svg>