<svg id="Layer_1" data-name="Layer 1" xmlns="http://www.w3.org/2000/svg" viewBox="0 0 210 210"><defs><style>.cls-1{fill:none;stroke:#000;stroke-miterlimit:10;stroke-width:10px;}</style></defs><title>Artboard 1</title><circle class="cls-1" cx="105" cy="105" r="100"/><path d="M118,112.25a3.84,3.84,0,0,0-.5-1.37l-1-1.88,1.21-1.79a4,4,0,0,0,.59-1.31c0-.19,4.23-18.24-.05-32.86A212.57,212.57,0,0,0,109,47.67a3.88,3.88,0,0,0-3.8-2.29h-.36a3.89,3.89,0,0,0-3.79,2.28A214.7,214.7,0,0,0,91.85,73c-4.21,14.39-.23,32.14-.06,32.89a4,4,0,0,0,.57,1.27l1.12,1.69L92.38,111c-2,4.44-3.47,35-2.58,92.8q4,.61,8.06.89c-.21-15.61-.3-30.24-.27-42.59v-3.49h14.83v3.49c0,12.34-.05,27-.26,42.59q4.06-.29,8-.89c.66-42.84.21-80.61-2.11-91.29Zm-18.64-37c.65-2.22,1.38-4.54,2.31-7.31L105,58.06l3.32,9.88c.65,1.95,1.51,4.54,2.32,7.32,3.59,12.28.09,28.17-.06,28.85a5.72,5.72,0,0,0,0,.61l.15,4.06H99.28l.15-4a5.46,5.46,0,0,0,0-.64c0-.18-3.72-16.3,0-28.9ZM97.66,150.8v-3.54c.16-12.73.48-21.95,1-27.39l.28-3.21h12.17l.27,3.19c.47,5.45.79,14.66,1,27.37v3.54Z"/></svg>