<svg id="Layer_1" data-name="Layer 1" xmlns="http://www.w3.org/2000/svg" viewBox="0 0 210 210"><defs><style>.cls-1{fill:none;stroke:#000;stroke-miterlimit:10;stroke-width:10px;}</style></defs><title>Artboard 1</title><circle class="cls-1" cx="105" cy="105" r="100"/><path d="M145.6,73.07H125.54V62.67a3.18,3.18,0,0,0-3.18-3.18H87.89a3.17,3.17,0,0,0-3.18,3.18v10.4H64.66a3.17,3.17,0,0,0-3.18,3.18V89.82A3.17,3.17,0,0,0,64.66,93h2.82v67a3.18,3.18,0,0,0,3.18,3.18h69a3.18,3.18,0,0,0,3.18-3.18V93h2.82a3.18,3.18,0,0,0,3.18-3.18V76.24A3.18,3.18,0,0,0,145.6,73.07ZM91.07,65.85h28.13v7.22H91.07Zm45.37,91H73.83V93H84.71v42.69a3.18,3.18,0,1,0,6.35,0V93H102v42.69a3.18,3.18,0,0,0,6.35,0V93H119.2v42.69a3.18,3.18,0,0,0,6.35,0V93h10.89Zm6-70.2H67.84V79.42h74.59Z"/><path d="M145.6,46.81A3.18,3.18,0,0,0,142.43,50V61.46a3.18,3.18,0,1,0,6.35,0V50A3.18,3.18,0,0,0,145.6,46.81Z"/><path d="M171.89,73.1H160.42a3.18,3.18,0,1,0,0,6.35h11.47a3.18,3.18,0,1,0,0-6.35Z"/><path d="M166.54,59.83a3.18,3.18,0,0,0-4.49-4.49l-8.11,8.11a3.18,3.18,0,1,0,4.49,4.49Z"/><path d="M64.4,64.63a3.17,3.17,0,0,0,3.18-3.18V50a3.18,3.18,0,0,0-6.35,0V61.46A3.17,3.17,0,0,0,64.4,64.63Z"/><path d="M49.58,73.1H38.11a3.18,3.18,0,0,0,0,6.35H49.58a3.18,3.18,0,0,0,0-6.35Z"/><path d="M47.94,55.33a3.18,3.18,0,0,0-4.49,4.49l8.11,8.11a3.18,3.18,0,0,0,4.49-4.49Z"/></svg>