<svg id="Layer_1" data-name="Layer 1" xmlns="http://www.w3.org/2000/svg" viewBox="0 0 210 210"><defs><style>.cls-1{fill:none;stroke:#000;stroke-miterlimit:10;stroke-width:10px;}.cls-2{fill:#010101;}</style></defs><title>Artboard 1</title><circle class="cls-1" cx="105" cy="105" r="100"/><path class="cls-2" d="M111.3,95.6h0a3.5,3.5,0,0,0,0-7h0a36,36,0,0,1-36-36h0a3.49,3.49,0,0,0-3.47-3.2h0a3.49,3.49,0,0,0-3.47,3.28h0c0,.06,0,.12,0,.17s0,0,0,0A36,36,0,0,1,35.82,88.73c-1.05-.08-2.11-.13-3.18-.13h0a3.49,3.49,0,0,0-.22,7v.32c1.16,0,2.32-.06,3.46-.15a35.94,35.94,0,0,1,32.59,32.48c-.09,1.12-.14,2.24-.14,3.38a3.5,3.5,0,0,0,3.5,3.5h0a3.5,3.5,0,0,0,3.5-3.5s0,0,0-.07h.3c0-1.11-.06-2.2-.14-3.3A36,36,0,0,1,111.3,95.6ZM72,114.21a43.12,43.12,0,0,0-22.11-22,43.14,43.14,0,0,0,22-22.4A43.21,43.21,0,0,0,94.27,92.09,43.13,43.13,0,0,0,72,114.21Z"/><path class="cls-2" d="M111.82,68.63a2.54,2.54,0,0,0,0,.27c0,.06,0,.11.05.16a2.51,2.51,0,0,0,.1.31l.06.11a2.51,2.51,0,0,0,.17.31l.11.13a2.52,2.52,0,0,0,.2.24l.17.14a2.5,2.5,0,0,0,.2.17l.19.11.23.12.24.07.23.07.27,0,.23,0a13.93,13.93,0,0,1,13.9,13.9,2.5,2.5,0,0,0,2.5,2.5h0a2.5,2.5,0,0,0,2.5-2.5s0-.09,0-.13,0,0,0-.07a13.92,13.92,0,0,1,12.17-13.78c.51,0,1,.08,1.53.08h0a2.6,2.6,0,0,0,.2-5.2h0c-.62,0-1.23,0-1.83.09a13.93,13.93,0,0,1-12.15-12.11c0-.56.09-1.11.09-1.68a2.5,2.5,0,0,0-2.5-2.5h-.2A2.5,2.5,0,0,0,128,52c0,.57,0,1.13.09,1.68A13.93,13.93,0,0,1,114.3,65.9l-.23,0-.27,0-.23.07-.24.07-.23.12-.19.11a2.5,2.5,0,0,0-.2.17l-.17.14a2.52,2.52,0,0,0-.2.24l-.11.13a2.51,2.51,0,0,0-.17.31l-.06.11a2.51,2.51,0,0,0-.1.31c0,.05,0,.11-.05.16a2.54,2.54,0,0,0,0,.27c0,.08,0,.15,0,.23h0C111.8,68.48,111.82,68.56,111.82,68.63Zm18.78-7.12a19,19,0,0,0,6.89,6.85,19,19,0,0,0-6.85,7,19,19,0,0,0-7-7A19,19,0,0,0,130.6,61.51Z"/><path class="cls-2" d="M161.9,131.29a3,3,0,0,0-3-3h0a26.92,26.92,0,0,0-2.75.15,20.91,20.91,0,0,1-18.2-17.76,26.9,26.9,0,0,0,.17-2.88,3,3,0,0,0-3-3h0l-.2,0-.2,0h0a3,3,0,0,0-3,3,26.9,26.9,0,0,0,.17,2.88,20.9,20.9,0,0,1-20.57,17.91,2.94,2.94,0,0,0-.3,0l-.3,0a2.92,2.92,0,0,0-.29.09l-.27.08c-.09,0-.17.09-.25.14s-.18.09-.26.14-.13.11-.2.16a3,3,0,0,0-.25.2c-.05.05-.09.12-.14.17a3,3,0,0,0-.22.27c0,.06-.07.13-.1.19a3,3,0,0,0-.17.32c0,.07,0,.14-.07.21a2.94,2.94,0,0,0-.11.35c0,.09,0,.18,0,.27a2.94,2.94,0,0,0,0,.33h0a2.94,2.94,0,0,0,0,.33c0,.09,0,.18,0,.27a2.93,2.93,0,0,0,.11.35c0,.07,0,.15.07.21a3,3,0,0,0,.17.32c0,.06.06.13.1.19a3,3,0,0,0,.22.27c0,.06.09.12.14.17a3,3,0,0,0,.25.2c.07.05.13.11.2.16s.17.09.25.14.17.1.26.14l.26.08a2.93,2.93,0,0,0,.3.09l.3,0a2.94,2.94,0,0,0,.3,0,20.91,20.91,0,0,1,20.81,20.81,3,3,0,0,0,3,3h0a3,3,0,0,0,3-3c0-.08,0-.15,0-.22s0,0,0-.06a20.9,20.9,0,0,1,18.16-20.61c.74.06,1.48.1,2.23.11h0a3.7,3.7,0,0,0,3.4-3.31ZM135,143a27.1,27.1,0,0,0-11.49-11.42,27.1,27.1,0,0,0,11.37-11.18,27.1,27.1,0,0,0,11.27,11.13A27.11,27.11,0,0,0,135,143Z"/></svg>